<svg viewBox="0 0 97 83" xmlns="http://www.w3.org/2000/svg" class="headerLogo">
    <g fill="none" fill-rule="evenodd">
    <g fill="#161412" fill-rule="nonzero">
    <path d="m0 14.491h9.226v68.509h19.774v-68.509-1.315-13.176h-29zm40 0h9.231v68.509h19.769v-68.509-1.315-13.176h-29zm46.5-14.491c-4.247 0-8.075 2.558-9.7 6.482-1.626 3.923-0.727 8.44 2.276 11.442 3.003 3.003 7.519 3.902 11.442 2.276 3.924-1.625 6.482-5.453 6.482-9.7 2e-3 -2.785-1.104-5.457-3.073-7.427-1.97-1.969-4.642-3.075-7.427-3.073zm0 15.128c-1.875 0-3.565-1.13-4.282-2.863-0.717-1.732-0.32-3.726 1.008-5.05 1.326-1.326 3.32-1.72 5.052-1.001 1.732 0.72 2.859 2.41 2.856 4.286 0 1.228-0.488 2.406-1.357 3.274-0.87 0.868-2.048 1.355-3.277 1.354z"></path>
    </g>
    </g>
</svg>